# xmcd
#
# Track frame offsets:
#	150
#	14414
#	34382
#	47428
#	61101
#	76899
#	90720
#	103443
#	118015
#	134099
#	149482
#	162766
#	174864
#	191912
#	201799
#
# Disc length: 2898 seconds
#
# Revision: 0
# Processed by: cddbd v1.5.2PL0 Copyright (c) Steve Scherf et al.
# Submitted via: EasyCDDAExtractor 15.2.5.1
#
DISCID=d40b500f
DTITLE=Bruno and Marrone - Juras de Amor
DYEAR=2011
DGENRE=Sertanejo
TTITLE0=Juras de Amor
TTITLE1=Já Não Sei Mais Nada (Yo No Se Mañana)
TTITLE2=Rancho
TTITLE3=Parede de Vidro
TTITLE4=Entrada Franca
TTITLE5=Amor Só é Bom Quando Dói
TTITLE6=Querendo Viver
TTITLE7=Te Amo Feito Louco
TTITLE8=Flores
TTITLE9=Fora do Normal
TTITLE10=Tô Largado
TTITLE11=Cicatriz
TTITLE12=Proposta Indecente
TTITLE13=E Aí...
TTITLE14=Te Quero Tanto (Te Quiero Tanto Tanto)
EXTD=
EXTT0=
EXTT1=
EXTT2=
EXTT3=
EXTT4=
EXTT5=
EXTT6=
EXTT7=
EXTT8=
EXTT9=
EXTT10=
EXTT11=
EXTT12=
EXTT13=
EXTT14=
PLAYORDER=
